<svg xmlns="http://www.w3.org/2000/svg" xmlns:xlink="http://www.w3.org/1999/xlink" width="500" zoomAndPan="magnify" viewBox="0 0 375 374.999991" height="500" preserveAspectRatio="xMidYMid meet" version="1.0"><defs><g/></defs><g fill="#ffffff" fill-opacity="1"><g transform="translate(12.282316, 84.748824)"><g><path d="M 73.78125 73.78125 L 85.171875 49.140625 L 47.390625 11.359375 L 22.875 22.875 L 1.21875 1.21875 L 133.078125 -56.453125 L 152.4375 -37.09375 L 95.984375 95.984375 Z M 117.90625 -21.53125 L 71.75 0 L 96.53125 24.78125 Z M 117.90625 -21.53125 "/></g></g></g><g fill="#ffffff" fill-opacity="1"><g transform="translate(115.179274, 187.645782)"><g><path d="M 8.125 8.125 L 29.25 -13 L 50.234375 7.984375 L 29.109375 29.109375 Z M 8.125 8.125 "/></g></g></g><g fill="#ffffff" fill-opacity="1"><g transform="translate(157.962901, 230.429409)"><g><path d="M 62.953125 62.953125 L 76.90625 12.1875 L 63.765625 -0.953125 L 31.40625 31.40625 L 10.828125 10.828125 L 105.59375 -83.9375 L 143.90625 -45.625 C 150.226562 -39.300781 154.519531 -32.304688 156.78125 -24.640625 C 159.039062 -16.972656 159.265625 -9.347656 157.453125 -1.765625 C 155.640625 5.816406 151.664062 12.675781 145.53125 18.8125 C 139.394531 24.945312 132.351562 28.875 124.40625 30.59375 C 116.46875 32.320312 108.617188 31.828125 100.859375 29.109375 L 85.96875 85.96875 Z M 107.21875 -44.40625 L 82.71875 -19.90625 L 99.109375 -3.515625 C 103.347656 0.722656 107.835938 2.910156 112.578125 3.046875 C 117.316406 3.179688 121.445312 1.488281 124.96875 -2.03125 C 128.570312 -5.632812 130.304688 -9.804688 130.171875 -14.546875 C 130.035156 -19.285156 127.847656 -23.773438 123.609375 -28.015625 Z M 107.21875 -44.40625 "/></g></g></g><g fill="#ffffff" fill-opacity="1"><g transform="translate(253.142586, 325.609093)"><g><path d="M 8.125 8.125 L 29.25 -13 L 50.234375 7.984375 L 29.109375 29.109375 Z M 8.125 8.125 "/></g></g></g></svg>