<svg xmlns="http://www.w3.org/2000/svg" xmlns:xlink="http://www.w3.org/1999/xlink" width="500" zoomAndPan="magnify" viewBox="0 0 375 374.999991" height="500" preserveAspectRatio="xMidYMid meet" version="1.0"><defs><g/><clipPath id="4eb2c00759"><path d="M 5.488281 5.488281 L 369.238281 5.488281 L 369.238281 22.199219 L 5.488281 22.199219 Z M 352.796875 22.199219 L 369.238281 22.199219 L 369.238281 352.796875 L 352.796875 352.796875 Z M 5.488281 22.199219 L 22.199219 22.199219 L 22.199219 352.796875 L 5.488281 352.796875 Z M 5.488281 352.796875 L 369.238281 352.796875 L 369.238281 369.238281 L 5.488281 369.238281 Z M 5.488281 352.796875 " clip-rule="nonzero"/></clipPath></defs><g clip-path="url(#4eb2c00759)"><path fill="#ffffff" d="M 5.488281 5.488281 L 5.488281 369.238281 L 369.238281 369.238281 L 369.238281 5.488281 Z M 5.488281 5.488281 " fill-opacity="1" fill-rule="nonzero"/></g><g fill="#ffffff" fill-opacity="1"><g transform="translate(61.736445, 114.774298)"><g><path d="M 52.6875 52.6875 L 60.8125 35.09375 L 33.84375 8.125 L 16.34375 16.34375 L 0.875 0.875 L 95.046875 -40.328125 L 108.875 -26.5 L 68.546875 68.546875 Z M 84.21875 -15.375 L 51.25 0 L 68.9375 17.6875 Z M 84.21875 -15.375 "/></g></g></g><g fill="#ffffff" fill-opacity="1"><g transform="translate(135.211709, 188.249562)"><g><path d="M 5.796875 5.796875 L 20.875 -9.28125 L 35.859375 5.703125 L 20.78125 20.78125 Z M 5.796875 5.796875 "/></g></g></g><g fill="#ffffff" fill-opacity="1"><g transform="translate(165.76213, 218.799983)"><g><path d="M 44.953125 44.953125 L 54.921875 8.703125 L 45.53125 -0.6875 L 22.421875 22.421875 L 7.734375 7.734375 L 75.421875 -59.953125 L 102.78125 -32.59375 C 107.289062 -28.082031 110.347656 -23.082031 111.953125 -17.59375 C 113.566406 -12.113281 113.726562 -6.664062 112.4375 -1.25 C 111.15625 4.15625 108.320312 9.050781 103.9375 13.4375 C 99.550781 17.820312 94.519531 20.625 88.84375 21.84375 C 83.175781 23.070312 77.570312 22.71875 72.03125 20.78125 L 61.390625 61.390625 Z M 76.5625 -31.71875 L 59.0625 -14.21875 L 70.765625 -2.515625 C 73.796875 0.515625 77.003906 2.078125 80.390625 2.171875 C 83.773438 2.265625 86.722656 1.054688 89.234375 -1.453125 C 91.804688 -4.023438 93.046875 -7.003906 92.953125 -10.390625 C 92.859375 -13.773438 91.296875 -16.984375 88.265625 -20.015625 Z M 76.5625 -31.71875 "/></g></g></g><g fill="#ffffff" fill-opacity="1"><g transform="translate(233.726779, 286.764633)"><g><path d="M 5.796875 5.796875 L 20.875 -9.28125 L 35.859375 5.703125 L 20.78125 20.78125 Z M 5.796875 5.796875 "/></g></g></g></svg>